<?xml version="1.0" encoding="utf-8"?>
<!-- Generator: Adobe Illustrator 24.3.0, SVG Export Plug-In . SVG Version: 6.00 Build 0)  -->
<svg version="1.1" id="Layer_1" xmlns="http://www.w3.org/2000/svg" xmlns:xlink="http://www.w3.org/1999/xlink" x="0px" y="0px"
	 viewBox="0 0 1096.8 754" style="enable-background:new 0 0 1096.8 754;" xml:space="preserve">
<style type="text/css">
	.st0{fill:url(#SVGID_1_);}
	.st1{opacity:0.5;}
	.st2{fill:none;stroke:#FFFFFF;stroke-width:2;stroke-miterlimit:10;}
	.st3{fill:#FFFFFF;}
	.st4{fill:#1F53A5;}
	.st5{fill:#46C6F0;}
	.st6{fill:#DFF2F3;}
	.st7{fill:#2152A4;}
	.st8{fill:#2A337F;}
	.st9{fill:#7054A3;}
	.st10{fill:none;stroke:#2A337F;stroke-miterlimit:10;}
	.st11{fill:#7FD2EF;}
	.st12{fill:#98DAF0;}
	.st13{fill:#BDE6F3;}
	.st14{opacity:0.47;fill:#51C9EF;enable-background:new    ;}
	.st15{fill:#51C9EF;}
	.st16{fill:none;stroke:#FFFFFF;stroke-miterlimit:10;}
	.st17{fill:#1A1F4B;}
	.st18{fill:#315FAC;}
	.st19{fill:#CFB4B2;}
	.st20{fill:#D8BBB7;}
	.st21{fill:#2A3586;}
	.st22{fill:#5365AE;}
	.st23{fill:#EAEAEA;}
	.st24{fill:#2C1F57;}
	.st25{fill:#1D1E30;}
	.st26{fill:none;stroke:#5B3F1E;stroke-miterlimit:10;}
	.st27{fill:#4172B8;}
	.st28{fill:#88D5F3;}
	.st29{fill:#3BBEEF;}
	.st30{fill:#A2DDF2;}
	.st31{fill:none;stroke:#51C9EF;stroke-miterlimit:10;}
	.st32{opacity:0.47;fill:#5CB0E3;enable-background:new    ;}
	.st33{fill:#4E9DB5;}
	.st34{fill:url(#SVGID_2_);}
	.st35{fill:url(#SVGID_3_);}
	.st36{fill:url(#SVGID_4_);}
	.st37{fill:url(#SVGID_5_);}
	.st38{fill:url(#SVGID_6_);}
	.st39{fill:url(#SVGID_7_);}
	.st40{fill:url(#SVGID_8_);}
	.st41{fill:url(#SVGID_9_);}
	.st42{fill:#73CDDE;}
	.st43{fill:none;stroke:#2A3586;stroke-miterlimit:10;}
	.st44{fill:none;stroke:#9254A2;stroke-miterlimit:10;}
</style>
<g id="BACKGROUND">
</g>
<g id="OBJECTS">
	
		<linearGradient id="SVGID_1_" gradientUnits="userSpaceOnUse" x1="658.6" y1="566.8147" x2="658.6" y2="640.2147" gradientTransform="matrix(1 0 0 1 0 -263.3147)">
		<stop  offset="0" style="stop-color:#FFFFFF"/>
		<stop  offset="1" style="stop-color:#FFFFFF;stop-opacity:0"/>
	</linearGradient>
	<path class="st0" d="M658.6,376.9L658.6,376.9c-2.4,0-4.3-1.9-4.3-4.3v-64.8c0-2.4,1.9-4.3,4.3-4.3l0,0c2.4,0,4.3,1.9,4.3,4.3v64.8
		C662.9,375,661,376.9,658.6,376.9z"/>
	<g class="st1">
		<polyline class="st2" points="906.2,649 971.8,649 996.6,673.8 1069.8,673.8 1003,739.1 		"/>
		<polyline class="st2" points="901.2,654.4 966.9,654.4 991.6,679.1 1047.4,679.1 1001.4,724.1 		"/>
		<polyline class="st2" points="913.6,641.7 980,641.7 1004.4,666.2 1062.1,666.2 		"/>
		<polyline class="st2" points="919.5,636 985.1,636 1050.5,621.1 1106.8,621.1 1134.8,593.7 		"/>
		<polyline class="st2" points="925.5,630.1 991.2,630.1 1056.9,614.9 1103.1,614.9 1150.3,566.2 		"/>
		<polyline class="st2" points="900.7,616.7 966.3,616.7 1032.1,601.5 1068.2,601.5 1096.8,572.1 		"/>
		<path class="st3" d="M996.6,738.4c0-0.8,3.4-1.4,7.6-1.4c4.2,0,7.6,0.6,7.6,1.4c0,0.8-3.4,1.4-7.6,1.4S996.6,739.1,996.6,738.4z"
			/>
		<path class="st3" d="M993.8,724.1c0-0.8,3.4-1.4,7.6-1.4c4.2,0,7.6,0.6,7.6,1.4c0,0.8-3.4,1.4-7.6,1.4S993.8,724.9,993.8,724.1z"
			/>
		<path class="st3" d="M1054.5,666.2c0-0.8,3.4-1.4,7.6-1.4s7.6,0.6,7.6,1.4c0,0.8-3.4,1.4-7.6,1.4S1054.5,666.9,1054.5,666.2z"/>
		<path class="st3" d="M1127.3,593.7c0-0.8,3.4-1.4,7.6-1.4s7.6,0.6,7.6,1.4c0,0.8-3.4,1.4-7.6,1.4
			C1130.7,595.1,1127.3,594.5,1127.3,593.7z"/>
		<path class="st3" d="M1142.8,566.2c0-0.8,3.4-1.4,7.6-1.4s7.6,0.6,7.6,1.4c0,0.8-3.4,1.4-7.6,1.4S1142.8,567,1142.8,566.2z"/>
		<path class="st3" d="M1089.2,572.1c0-0.8,3.4-1.4,7.6-1.4s7.6,0.6,7.6,1.4c0,0.8-3.4,1.4-7.6,1.4S1089.2,572.9,1089.2,572.1z"/>
	</g>
	<g class="st1">
		<polyline class="st2" points="251.8,617.3 186.1,617.3 161.3,592.5 88.1,592.5 154.9,527.2 		"/>
		<polyline class="st2" points="256.7,611.9 191.1,611.9 166.3,587.1 110.5,587.1 156.5,542.2 		"/>
		<polyline class="st2" points="244.3,624.6 178,624.6 153.5,600.1 95.8,600.1 		"/>
		<polyline class="st2" points="238.5,630.3 172.8,630.3 107.4,645.2 51.2,645.2 23.1,672.6 		"/>
		<polyline class="st2" points="232.4,636.2 166.8,636.2 101,651.4 54.8,651.4 7.6,700.1 		"/>
		<polyline class="st2" points="257.3,649.6 191.6,649.6 125.9,664.8 89.7,664.8 61.2,694.2 		"/>
		<path class="st3" d="M161.3,527.9c0,0.8-3.4,1.4-7.6,1.4c-4.2,0-7.6-0.6-7.6-1.4c0-0.8,3.4-1.4,7.6-1.4
			C157.9,526.5,161.3,527.1,161.3,527.9z"/>
		<path class="st3" d="M164.1,542.2c0,0.8-3.4,1.4-7.6,1.4c-4.2,0-7.6-0.6-7.6-1.4c0-0.8,3.4-1.4,7.6-1.4
			C160.7,540.8,164.1,541.4,164.1,542.2z"/>
		<path class="st3" d="M103.4,600.1c0,0.8-3.4,1.4-7.6,1.4s-7.6-0.6-7.6-1.4c0-0.8,3.4-1.4,7.6-1.4S103.4,599.3,103.4,600.1z"/>
		<path class="st3" d="M30.7,672.6c0,0.8-3.4,1.4-7.6,1.4s-7.6-0.6-7.6-1.4c0-0.8,3.4-1.4,7.6-1.4C27.3,671.2,30.7,671.8,30.7,672.6
			z"/>
		<ellipse class="st3" cx="7.6" cy="700.1" rx="7.6" ry="1.4"/>
		<path class="st3" d="M68.7,694.2c0,0.8-3.4,1.4-7.6,1.4s-7.6-0.6-7.6-1.4s3.4-1.4,7.6-1.4C65.4,692.8,68.7,693.4,68.7,694.2z"/>
	</g>
	<g>
		<path class="st4" d="M998,563c0.3-1,0.3-2.1,0-3.1v-24.6l-182.1,37h-473c-1.6,0-3.2,0.6-4.3,1.8l-123,120.1l-46.9,9.5v22.9h0.1
			c0.5,2.8,2.8,5.2,6.1,5.2h649.2c1.6,0,3.2-0.6,4.3-1.8l167.9-164.1C997.2,565,997.7,564.1,998,563L998,563L998,563L998,563z"/>
		<path class="st5" d="M992,530.7H342.9c-1.6,0-3.2,0.6-4.3,1.8l-168,164.1c-4,3.9-1.2,10.6,4.3,10.6h649.2c1.6,0,3.2-0.6,4.3-1.8
			l167.9-164.1C1000.3,537.4,997.6,530.7,992,530.7z"/>
		<polygon class="st6" points="804.9,696.8 216.5,696.8 375.8,541.1 964.2,541.1 		"/>
		<path class="st7" d="M282.8,682.4h-10.5c-6.2,0-9.3-7.5-4.8-11.8l39.4-38.5c3.7-3.6,8.6-5.6,13.8-5.6h10.5c6.2,0,9.3,7.5,4.8,11.8
			l-39.4,38.5C293,680.4,288,682.4,282.8,682.4z"/>
		<path class="st8" d="M274,614c-3-4.5-0.4-11.5,5.8-15.7s13.7-3.9,16.7,0.6s0.4,11.5-5.8,15.7C284.5,618.8,277,618.5,274,614z"/>
		<path class="st9" d="M854.9,662.3c-1.8-2.7-0.3-6.8,3.3-9.3c3.7-2.5,8.1-2.4,9.9,0.2c1.8,2.7,0.3,6.8-3.3,9.3
			C861.1,665.1,856.7,665,854.9,662.3z"/>
		<path class="st9" d="M838.1,677.7c-1.8-2.7-0.3-6.8,3.3-9.3c3.7-2.5,8.1-2.4,9.9,0.2c1.8,2.7,0.3,6.8-3.3,9.3
			C844.4,680.5,839.9,680.4,838.1,677.7z"/>
		<path class="st8" d="M740.3,726.5H632.5c-3.2,0-5.7-2.6-5.7-5.7v-3.1c0-3.2,2.6-5.7,5.7-5.7h107.8c3.2,0,5.7,2.6,5.7,5.7v3.1
			C746,723.9,743.5,726.5,740.3,726.5z"/>
		<path class="st5" d="M989.5,560.2v4.3c0,1.5-0.6,2.8-1.6,3.9l-20.4,20.5c-0.7,0.7-1.9,0.2-1.9-0.8v-6.5c0-1.5,0.6-3,1.7-4.1
			l18.8-18.7C987.4,557.5,989.5,558.4,989.5,560.2z"/>
		<line class="st10" x1="929.1" y1="550.1" x2="882.5" y2="593.7"/>
		<line class="st10" x1="892.5" y1="555.9" x2="756.6" y2="688.9"/>
		<line class="st10" x1="868" y1="555.9" x2="732" y2="688.9"/>
		<g>
			
				<ellipse transform="matrix(0.9999 -1.030093e-02 1.030093e-02 0.9999 -6.3037 5.8668)" class="st5" cx="566.4" cy="614.9" rx="125.9" ry="57.1"/>
			<path class="st11" d="M655.8,654.4c22.7-10.6,36.6-25,36.5-40.8l-125.9,1.3L655.8,654.4z"/>
			<path class="st12" d="M461.9,647.6c22.7,15.2,61.4,24.9,105.1,24.5c34.8-0.4,66.2-7.1,88.8-17.7l-89.4-39.5L461.9,647.6z"/>
			<path class="st13" d="M566.4,614.9l125.9-1.3c-0.1-6.8-2.8-13.4-7.7-19.4L566.4,614.9z"/>
		</g>
	</g>
	<g>
		<path class="st14" d="M628,31.2c-8.7-1.4-17.6-2.4-26.4-3.2c-26.8-2.3-53.8-2.8-80.6-1.5c-13.7,0.7-27.4,1.7-41,3.6
			c-1.5,0.2-2.9,0.4-4.4,0.6v73.5c15.6-2.4,31.3-3.6,47-4.3c32.6-1.4,65.7-0.8,98.1,3.7c2.4,0.3,4.8,0.7,7.3,1.1L628,31.2L628,31.2z
			"/>
		<g>
			<circle class="st15" cx="513.9" cy="60" r="18.5"/>
			<path class="st3" d="M532.4,60c0,10.2-8.3,18.5-18.5,18.5V60H532.4z"/>
		</g>
		<path class="st16" d="M571.9,44.7c0,1.7-1.4,3.2-3.2,3.2H551c-1.7,0-3.2-1.4-3.2-3.2l0,0c0-1.7,1.4-3.2,3.2-3.2h17.7
			C570.5,41.5,571.9,42.9,571.9,44.7L571.9,44.7z"/>
		<path class="st16" d="M600.6,44.7c0,1.7-1.4,3.2-3.2,3.2h-17.7c-1.7,0-3.2-1.4-3.2-3.2l0,0c0-1.7,1.4-3.2,3.2-3.2h17.7
			C599.2,41.5,600.6,42.9,600.6,44.7L600.6,44.7z"/>
	</g>
	<g>
		<path class="st17" d="M520.2,432.1L520.2,432.1c-10.9-1-18.9-10.6-17.9-21.4l11.9-161.9l47.1,4.2l-19.8,162.4
			C540,425.7,530.6,433.1,520.2,432.1z"/>
		<path class="st17" d="M523.9,623.2l-31.9-1.8l10.3-208.9c0.6-10.4,9.5-18.3,19.9-17.7l0,0c10.7,0.6,18.7,10,17.7,20.6L523.9,623.2
			z"/>
		<path class="st17" d="M580.4,431.7L580.4,431.7c10.9-0.6,19.2-10,18.6-20.9l-7-162.2l-47.2,2.8l14.9,162.9
			C560.8,424.7,570,432.3,580.4,431.7z"/>
		<path class="st17" d="M573.3,625.1l31.9-1.3l-6.9-209.1c-0.4-10.4-9.2-18.5-19.6-18.1l0,0c-10.7,0.4-18.9,9.7-18,20.3L573.3,625.1
			z"/>
		<path class="st18" d="M596,255.6c0,0-22.8,4.1-44.9,4.1c-19,0-41.9-5.3-41.9-5.3l-5.8-88.7c-0.7-11.1,8.1-20.5,19.2-20.5h77.3
			L596,255.6z"/>
		<path class="st18" d="M506.2,257.2l26.5-85.5c3.2-10.5-3-21.5-13.7-24l0,0c-10.2-2.4-20.3,3.9-22.8,14.1l-20.6,87.1
			c-2,8.5,3.3,17,11.8,19l0,0C495.5,269.8,503.7,265.1,506.2,257.2z"/>
		<polygon class="st3" points="585.9,145.2 538.6,145.2 561.1,224.5 		"/>
		<path class="st18" d="M627.3,252.2l-50.1-97.7l20-8.6c8.8-3.8,19.1,0.3,22.8,9.1l35.9,83.7c3.4,8-0.3,17.3-8.3,20.8l0,0
			C640,262.8,631.1,259.6,627.3,252.2z"/>
		<path class="st18" d="M726.3,184.6L653,257.4c-6.3,5.6-16,5-21.6-1.3l0,0c-5.6-6.3-5-16,1.3-21.6l78.9-66.6L726.3,184.6z"/>
		<polygon class="st19" points="576.3,146.7 559.6,149.2 543.1,139.6 542.4,124 575.2,122.4 		"/>
		<path class="st20" d="M584.6,101c1.1,8.3-1,17-4.3,24.7c-2.1,4.9-5.4,10.2-10.7,11.1c-2.6,0.4-5.2-0.3-7.7-1.2
			c-13.3-4.8-28.4-14.2-29.9-29.7c-1.3-14.5,9.3-27.3,23.7-28.6c10-0.9,20,4.1,25.1,12.8C582.9,93.6,584.1,97.3,584.6,101z"/>
		<polygon class="st21" points="525.5,622.8 546.9,632.3 490.3,631.6 492.4,619.3 		"/>
		<polygon class="st21" points="605.3,622.8 626.7,632.2 573,631.7 573,622.4 		"/>
		<path class="st20" d="M710.6,170.3c-0.1-2.1,0.4-4.1,1.5-7c1-2.5,2.1-5.2,4-7.1c1.9-1.9,5-3.1,7.5-2c0.9,0.4,1.7,1.2,2.6,1.5
			c0.9,0.4,1.9,0.7,2.9,0.9c1.1,0.2,2.2,0.1,3.2-0.1c6.6-0.8,13.2-2,19.8-1.8c0.2,0-0.2,2-0.3,2.1c-0.3,0.7-0.7,1.4-1.2,1.9
			c-1.3,1.2-3.1,1.4-4.8,1.5c-1.9,0.1-4.7,0.5-6,2.2c-1,1.4-0.9,3.1-0.8,4.7c0.1,1.6,0,3.1-0.1,4.8c-0.3,3.5-1.6,6.9-3.9,9.5
			c-2,2.4-4.9,4.2-8,5c-1.3,0.3-2.8,1-4.2,1.1c-1.8,0.1-3.5-0.6-4.9-1.7c-2.8-2.1-4.5-5.8-5.6-9
			C711.3,174.2,710.7,172.2,710.6,170.3z"/>
		<polygon class="st22" points="556.5,151.3 565.1,151.3 560.8,158.7 		"/>
		<polygon class="st22" points="560.5,156.3 566.4,212.5 561.1,224.5 554,207.8 		"/>
		<path class="st17" d="M542.3,145.2l19,79.3l-25.5-40.1l6.5-11.3l-14.6-12.6C527.7,160.5,526.9,141.2,542.3,145.2z"/>
		<path class="st17" d="M580.1,145.2l-19,79.3l25.5-40.1l-6.5-11.3l14.6-12.6C594.7,160.5,595.5,141.2,580.1,145.2z"/>
		<path class="st23" d="M540.6,137.6l19.9,11.7l-5.4,6.5L541,144.7C541,144.7,537.5,138.8,540.6,137.6z"/>
		<path class="st23" d="M578.7,137.6l-18.2,11.7l5.4,6.5l14.1-11.1C580.1,144.7,581.9,138.8,578.7,137.6z"/>
		<polygon class="st24" points="541.4,222.5 532.4,243.1 535.5,244.7 543.9,224 		"/>
		<path class="st25" d="M555.4,103.6c0.1,2.6,0.2,5.1-1.2,7.2c-0.7,1.1-1.8,1.8-2.5,2.8s-0.8,2-1.3,3.1c-1.3,2.6-3.7,4.7-5.2,7.3
			c-1.2,2.1-1.5,4.7-1.8,7.1c-3.6,0-6.4-2.9-8.4-5.9c-4.4-6.6-6.8-14.3-8.1-22.1c-1.5-9.4,1.5-20.5,7.4-28c0.9-1.2,2.2-3,3.5-3.8
			c1.5-0.9,4-0.9,5.7-1.3c2.3-0.4,4.6-0.9,7-1.1c10.5-1.1,21.5,1.9,30,8.2c0.5,0.4,1,0.8,1.3,1.4c0.4,0.8,0.3,1.7,0.2,2.6
			c-0.3,2.3-0.8,4.6-1.3,6.9c-0.7,2.5-1.8,5.4-4.3,6.2c-1.1,0.4-2.3,0.2-3.4,0.1c-1.6-0.2-3.2-0.4-4.8-0.5c-2.1-0.2-4.2-0.5-6.2-0.1
			c-2,0.3-4.1,1.3-5.3,3C555.2,98.6,555.3,101.1,555.4,103.6z"/>
		<path class="st15" d="M537.1,99.7c0,0-7.3-1.5-10.6,0.9c0,0-2.9,5.4,1.2,7.1c0,0,6.2-1.4,11.6,2.1L537.1,99.7z"/>
		<path class="st26" d="M577.5,109.7c0,0,2.8,6.1,3.8,10.8c1.2,5.3-6.7-0.8-6.7-0.8"/>
		<path class="st22" d="M577,123.5l-11.2-0.3c0,0,1.6,5.9,5.4,6.8C575.1,130.7,577,123.5,577,123.5z"/>
		<path class="st27" d="M580.2,251.9l-87.3-13.5c-8.4-1-16,5.1-16.9,13.5l0,0c-1,8.4,5.1,16,13.5,16.9l88.2,5.2L580.2,251.9z"/>
		<path class="st20" d="M579.4,250.7c0,0,13.4-5.2,18.6-1.2c5.2,4-6.4,5.2-6.4,5.2s18.7,12,16.9,16.6s-0.5,19.1-40.5-1.5
			C568,269.8,559.9,262.2,579.4,250.7z"/>
		<path class="st15" d="M548.4,99.9c0,0,27.9,6.1,37.5-0.6c0,0,2,16.9-1,19.4c-4.4,3.7-3.6-8-6.2-7.8c-2.6,0.2-4.9,9-7.2,8.9
			C568.8,119.7,543.8,123.9,548.4,99.9z"/>
		<path class="st28" d="M551.5,102.8c0,0,25.5,4.9,34.2-0.5c0,0,1.8,12.3-0.9,14.3c-4,3-3.3-6.4-5.7-6.4c-5.4,0.1-5.9,7.3-8.1,7.2
			C568.7,117.3,547.3,122.3,551.5,102.8z"/>
		<path class="st15" d="M551.6,97.9c0,0,1.9,29.6-6.3,29.3s-11.9-6.6-11.2-22.1C534.9,89.7,551.6,97.9,551.6,97.9z"/>
		<path class="st29" d="M534.1,105.1c-0.5,11.9,1.5,18.4,6.3,20.9c7.7,0.1,6.7-25.2,6.5-29.8C541.9,95,534.6,95,534.1,105.1z"/>
	</g>
	<path class="st30" d="M873.3,154.8l-56.1,34.1c-6,3.7-9.7,10.2-9.7,17.2v69.3c0,6.1,6.6,9.8,11.8,6.6l58.3-35.4
		c5.2-3.2,8.4-8.8,8.4-14.9V162C886,155.5,878.9,151.5,873.3,154.8z"/>
	<path class="st31" d="M891.7,128.6L871.4,141v35.3l29.4-17.8v-24.8C900.7,129,895.6,126.2,891.7,128.6z"/>
	<path class="st15" d="M932.5,90.7L852,139.5c-1.8,1.1-4-0.2-4-2.2v-20c0-3.3,1.7-6.4,4.5-8.1L933,60.5c1.7-1.1,4,0.2,4,2.2v20
		C937,85.9,935.3,89,932.5,90.7z"/>
	<g>
		<path class="st29" d="M422.9,352.7c-9.9,0.8-19.8,2-29.6,3.7c-8.9,1.5-18.1,3.3-26.4,7c-2.9,1.3-7.2,3.2-8.1,6.6
			c-0.6,2.2-0.1,4.9-0.1,7.1c0,2.4,0,4.9,0,7.3c0,8,0,16.1,0,24.1c0,12,0,23.9,0,35.9c0-3.2,3.8-5.4,6.3-6.6c3.5-1.8,7.2-3,10.9-4.1
			c8.4-2.4,17-3.9,25.6-5.1c4.3-0.6,8.6-1.1,12.9-1.6c2.3-0.2,4.5-0.5,6.8-0.7c0.5,0,1.7,0.1,1.9-0.3c0.2-0.3,0-1.3,0-1.6
			c0-1.1,0-2.2,0-3.3c0-17.5,0-34.9,0-52.4C422.9,363.4,422.9,358.1,422.9,352.7z"/>
		<path class="st32" d="M479.7,391.5c-16.9,0.1-33.8-0.4-50.7-1.6c-17-1.3-34.2-3.1-50.7-7.5c-4.1-1.1-8.2-2.3-12-4.1
			c-2.8-1.3-7.6-3.6-7.6-7.3c0,13.1,0,26.3,0,39.4c0,8.5,0,17,0,25.5c0,2.4,0,4.8,0,7.2c0,0.4,0,0.9,0,1.3c0.1,2.7,2.6,4.6,4.8,5.9
			c6.5,3.9,14.4,5.7,21.7,7.2c7.9,1.7,15.9,2.9,23.9,3.9c16.5,2,33.1,3,49.7,3.4c3.9,0.1,7.7,0.2,11.6,0.2c2,0,4,0,6,0
			c0.4,0,3.2,0.3,3.4-0.1c0.1-0.2,0-1,0-1.2c0-0.9,0-1.9,0-2.8c0-7.5,0-15.1,0-22.6c0-15.3,0-30.6,0-45.9
			C479.7,392.1,479.7,391.8,479.7,391.5z"/>
	</g>
	<g>
		<path class="st29" d="M425.5,124.2c-16.8,1.4-33.7,3.3-50.3,6.3c-7.8,1.4-15.5,2.9-23.1,4.9c-7.4,1.9-14.8,4.1-21.7,7.3
			c-3.3,1.5-6.5,3.3-9.2,5.8c-1.2,1.1-2.2,2.4-2.8,4c-0.7,1.8-0.4,3.9-0.4,5.8c0,8.1,0,16.2,0,24.3c0,13.1,0,26.2,0,39.3
			c0,16.8,0,33.5-0.1,50.2c0,1.9,0,3.7,0,5.6c0-3.2,2.6-5.9,5-7.7c2.7-2.1,5.9-3.6,9-5c6.5-2.9,13.3-4.9,20.1-6.6
			c14.5-3.7,29.4-6.1,44.2-8c7.5-1,15-1.8,22.5-2.5c2-0.2,4-0.4,5.9-0.5c0.3,0,0.8,0.1,0.9-0.1c0.1-0.1,0-0.6,0-0.7
			c0-3.2,0-6.4,0-9.6c0-5.9,0-11.9,0-17.8c0-7.5,0-15.1,0-22.6c0-8,0-16,0-24c0-7.4,0-14.9,0-22.3c0-5.7,0-11.4,0-17
			c0-2.8,0-5.6,0-8.4C425.5,124.5,425.5,124.4,425.5,124.2z"/>
		<path class="st32" d="M520.4,189.1c-28.4,0.2-56.9-0.6-85.3-2.8c-27.5-2.1-55.1-5.2-81.9-11.8c-7.2-1.8-14.3-3.9-21.1-6.9
			c-3-1.3-6.1-2.8-8.8-4.8c-2.5-1.9-5.4-4.6-5.4-8.1c0,1.8,0,3.6,0,5.4c0,4.8,0,9.6,0,14.5c0,6.8,0,13.6,0,20.5c0,7.8,0,15.5,0,23.3
			c0,7.7,0,15.4,0,23c0,6.5,0,13.1,0,19.6c0,4.4,0,8.7,0,13.1c0,1,0,2.1,0,3.1c0,2.8,1.5,5.1,3.5,7c4.8,4.5,11.6,7,17.7,9.2
			c6.7,2.3,13.5,4.1,20.4,5.6c14,3.1,28.2,5.3,42.4,7c14.4,1.8,28.8,3,43.2,4c14.7,0.9,29.4,1.6,44.1,1.9c7.5,0.1,15,0.2,22.5,0.2
			c1.9,0,3.8,0,5.7,0c0.5,0,2.7,0.3,3,0c0.1-0.1,0-0.4,0-0.5c0.1-1,0-2.1,0-3.1c0-1.8,0-3.6,0-5.5c0-5.6,0-11.1,0-16.7
			c0-7.2,0-14.5,0-21.7c0-7.9,0-15.7,0-23.5c0-7.4,0-14.9,0-22.3c0-6,0-11.9,0-17.9c0-3.5,0-6.9,0-10.4
			C520.4,190,520.4,189.6,520.4,189.1z"/>
	</g>
	<g>
		<path class="st33" d="M793.5,332.4H784l0,0c-1.8-0.3-3.7,0-5.5,1.1l-146.8,88.9c-5.3,3.2-8.6,9-8.6,15.2v66.5v25v27.5h9.5
			l32.4-52.9l117.5-71.2c5.3-3.2,8.6-9,8.6-15.2v-76.8c0-1.4-0.4-2.7-1-3.9L793.5,332.4z"/>
		<path class="st30" d="M788,333.5l-146.8,89c-5.3,3.2-8.6,9-8.6,15.2v66.5v25v27.5l36.2-49.4l0,0L792,432.6c5.3-3.2,8.6-9,8.6-15.2
			v-76.8C800.6,334.1,793.5,330.1,788,333.5z"/>
		<line class="st16" x1="713.3" y1="391.7" x2="790.6" y2="344.9"/>
		<line class="st16" x1="648.8" y1="451.3" x2="790.6" y2="365.4"/>
		<line class="st16" x1="648.8" y1="469.3" x2="790.6" y2="383.4"/>
		<line class="st16" x1="648.8" y1="487.3" x2="790.6" y2="401.4"/>
	</g>
	<g>
		<path class="st29" d="M818.6,372.2c15.8,1.3,31.5,3.1,47.1,5.9c7.3,1.3,14.5,2.7,21.7,4.6c6.9,1.8,13.9,3.8,20.4,6.9
			c3.1,1.4,6.1,3.1,8.6,5.5c1.1,1,2.1,2.3,2.6,3.7c0.6,1.7,0.4,3.6,0.4,5.4c0,7.6,0,15.2,0,22.8c0,12.3,0,24.5,0.1,36.8
			c0,15.7,0,31.4,0.1,47.1c0,1.7,0,3.5,0,5.2c0-3-2.4-5.5-4.7-7.2c-2.6-2-5.5-3.4-8.4-4.7c-6-2.7-12.5-4.6-18.8-6.2
			c-13.6-3.5-27.5-5.7-41.5-7.5c-7-0.9-14.1-1.7-21.1-2.4c-1.8-0.2-3.7-0.3-5.5-0.5c-0.3,0-0.7,0.1-0.8-0.1c-0.1-0.1,0-0.5,0-0.7
			c0-3,0-6,0-9c0-5.6,0-11.1,0-16.7c0-7.1,0-14.2,0-21.2c0-7.5,0-15,0-22.5c0-7,0-13.9,0-20.9c0-5.3,0-10.6,0-16c0-2.6,0-5.3,0-7.9
			C818.6,372.4,818.6,372.3,818.6,372.2z"/>
		
			<linearGradient id="SVGID_2_" gradientUnits="userSpaceOnUse" x1="729.5768" y1="737.9091" x2="919.5212" y2="737.9091" gradientTransform="matrix(1 0 0 1 0 -263.3147)">
			<stop  offset="0" style="stop-color:#FFFFFF"/>
			<stop  offset="1" style="stop-color:#FFFFFF;stop-opacity:0"/>
		</linearGradient>
		<path class="st34" d="M729.6,433c26.7,0.2,53.3-0.5,79.9-2.6c25.8-2,51.7-4.9,76.8-11.1c6.7-1.7,13.4-3.6,19.7-6.4
			c2.9-1.3,5.7-2.7,8.2-4.5c2.4-1.8,5.1-4.4,5.1-7.6c0,1.7,0,3.4,0,5c0,4.5,0,9,0,13.6c0,6.4,0,12.8,0,19.2c0,7.3,0,14.6,0,21.8
			c0,7.2,0,14.4,0,21.6c0,6.1,0,12.3,0,18.4c0,4.1,0,8.2,0,12.2c0,1,0,1.9,0,2.9c0,2.7-1.4,4.8-3.3,6.6c-4.5,4.2-10.9,6.6-16.6,8.6
			c-6.3,2.2-12.7,3.8-19.2,5.3c-13.1,2.9-26.4,5-39.7,6.6c-13.5,1.7-27,2.9-40.5,3.7c-13.8,0.9-27.5,1.5-41.3,1.8
			c-7,0.1-14.1,0.2-21.1,0.2c-1.8,0-3.6,0-5.4,0c-0.5,0-2.6,0.2-2.8,0c-0.1-0.1,0-0.4,0-0.5c-0.1-0.9,0-2,0-2.9c0-1.7,0-3.4,0-5.1
			c0-5.2,0-10.4,0-15.6c0-6.8,0-13.5,0-20.3c0-7.4,0-14.7,0-22.1c0-7,0-13.9,0-20.9c0-5.6,0-11.2,0-16.8c0-3.2,0-6.5,0-9.8
			C729.6,433.8,729.6,433.4,729.6,433z"/>
	</g>
	
		<linearGradient id="SVGID_3_" gradientUnits="userSpaceOnUse" x1="590.35" y1="986.3522" x2="590.35" y2="691.8473" gradientTransform="matrix(1 0 0 1 0 -263.3147)">
		<stop  offset="0" style="stop-color:#FFFFFF"/>
		<stop  offset="1" style="stop-color:#FFFFFF;stop-opacity:0"/>
	</linearGradient>
	<polygon class="st35" points="216.5,696.8 216.5,362.1 297.7,298.3 964.2,292.2 964.2,541.1 804.9,696.8 	"/>
	
		<linearGradient id="SVGID_4_" gradientUnits="userSpaceOnUse" x1="251.8" y1="574.5147" x2="251.8" y2="823.4147" gradientTransform="matrix(1 0 0 1 0 -263.3147)">
		<stop  offset="0" style="stop-color:#FFFFFF"/>
		<stop  offset="1" style="stop-color:#FFFFFF;stop-opacity:0"/>
	</linearGradient>
	<path class="st36" d="M251.8,560.1L251.8,560.1c-2.4,0-4.3-1.9-4.3-4.3V315.5c0-2.4,1.9-4.3,4.3-4.3l0,0c2.4,0,4.3,1.9,4.3,4.3
		v240.3C256.1,558.2,254.1,560.1,251.8,560.1z"/>
	
		<linearGradient id="SVGID_5_" gradientUnits="userSpaceOnUse" x1="438.2018" y1="743.2147" x2="438.2018" y2="854.0147" gradientTransform="matrix(1 0 0 1 0 -263.3147)">
		<stop  offset="0" style="stop-color:#FFFFFF"/>
		<stop  offset="1" style="stop-color:#FFFFFF;stop-opacity:0"/>
	</linearGradient>
	<path class="st37" d="M438.2,590.7L438.2,590.7c-2.4,0-4.3-1.9-4.3-4.3V484.2c0-2.4,1.9-4.3,4.3-4.3l0,0c2.4,0,4.3,1.9,4.3,4.3
		v102.2C442.6,588.8,440.6,590.7,438.2,590.7z"/>
	
		<linearGradient id="SVGID_6_" gradientUnits="userSpaceOnUse" x1="410.3018" y1="680.9147" x2="410.3018" y2="762.0147" gradientTransform="matrix(1 0 0 1 0 -263.3147)">
		<stop  offset="0" style="stop-color:#FFFFFF"/>
		<stop  offset="1" style="stop-color:#FFFFFF;stop-opacity:0"/>
	</linearGradient>
	<path class="st38" d="M410.3,498.7L410.3,498.7c-2.4,0-4.3-1.9-4.3-4.3v-72.5c0-2.4,1.9-4.3,4.3-4.3l0,0c2.4,0,4.3,1.9,4.3,4.3
		v72.5C414.7,496.8,412.7,498.7,410.3,498.7z"/>
	
		<linearGradient id="SVGID_7_" gradientUnits="userSpaceOnUse" x1="814.3" y1="771.7147" x2="814.3" y2="882.5147" gradientTransform="matrix(1 0 0 1 0 -263.3147)">
		<stop  offset="0" style="stop-color:#FFFFFF"/>
		<stop  offset="1" style="stop-color:#FFFFFF;stop-opacity:0"/>
	</linearGradient>
	<path class="st39" d="M814.3,619.2L814.3,619.2c-2.4,0-4.3-1.9-4.3-4.3V512.7c0-2.4,1.9-4.3,4.3-4.3l0,0c2.4,0,4.3,1.9,4.3,4.3
		v102.2C818.6,617.3,816.7,619.2,814.3,619.2z"/>
	
		<linearGradient id="SVGID_8_" gradientUnits="userSpaceOnUse" x1="948.3" y1="557.7147" x2="948.3" y2="668.5147" gradientTransform="matrix(1 0 0 1 0 -263.3147)">
		<stop  offset="0" style="stop-color:#FFFFFF"/>
		<stop  offset="1" style="stop-color:#FFFFFF;stop-opacity:0"/>
	</linearGradient>
	<path class="st40" d="M948.3,405.2L948.3,405.2c-2.4,0-4.3-1.9-4.3-4.3V298.7c0-2.4,1.9-4.3,4.3-4.3l0,0c2.4,0,4.3,1.9,4.3,4.3
		v102.2C952.6,403.3,950.6,405.2,948.3,405.2z"/>
	<path class="st3" d="M317.8,365.3c0,2.4-1.9,4.3-4.3,4.3s-4.3-1.9-4.3-4.3s1.9-4.3,4.3-4.3C315.8,360.9,317.8,362.9,317.8,365.3z"
		/>
	<path class="st3" d="M493.4,378.6c0,2.4-1.9,4.3-4.3,4.3s-4.3-1.9-4.3-4.3s1.9-4.3,4.3-4.3S493.4,376.2,493.4,378.6z"/>
	<path class="st3" d="M345.4,474.6c0,2.4-1.9,4.3-4.3,4.3s-4.3-1.9-4.3-4.3s1.9-4.3,4.3-4.3C343.5,470.2,345.4,472.2,345.4,474.6z"
		/>
	<path class="st3" d="M256.1,296.3c0,2.4-1.9,4.3-4.3,4.3c-2.4,0-4.3-1.9-4.3-4.3s1.9-4.3,4.3-4.3
		C254.2,291.9,256.1,293.9,256.1,296.3z"/>
	<circle class="st3" cx="948.3" cy="277.7" r="4.3"/>
	<circle class="st3" cx="814.3" cy="494.2" r="4.3"/>
	<path class="st3" d="M828.9,170.7c0,2.4-1.9,4.3-4.3,4.3s-4.3-1.9-4.3-4.3s1.9-4.3,4.3-4.3C827,166.3,828.9,168.3,828.9,170.7z"/>
	<path class="st3" d="M662.9,291.9c0,2.4-1.9,4.3-4.3,4.3s-4.3-1.9-4.3-4.3s1.9-4.3,4.3-4.3S662.9,289.5,662.9,291.9z"/>
	<g>
		<path class="st32" d="M792,183.2L724.4,228c-8.3,5.5-15,2.5-15-6.6v-68c0-9.1,6.7-21,15-26.5L792,82c8.3-5.5,15-2.5,15,6.6v68
			C807,165.8,800.3,177.7,792,183.2z"/>
		<g>
			
				<linearGradient id="SVGID_9_" gradientUnits="userSpaceOnUse" x1="759.9" y1="773.2345" x2="759.9" y2="834.6378" gradientTransform="matrix(1 -0.6009 0 1 0 -193.2652)">
				<stop  offset="0" style="stop-color:#FFFFFF"/>
				<stop  offset="1" style="stop-color:#FFFFFF;stop-opacity:0"/>
			</linearGradient>
			<path class="st41" d="M759.9,123.4c-15.3,10.2-27.8,32.2-27.8,49.1s12.4,22.4,27.8,12.2c15.3-10.2,27.8-32.2,27.8-49.1
				S775.2,113.2,759.9,123.4z M759.9,178.3c-12.1,8-21.9,3.7-21.9-9.6s9.8-30.7,21.9-38.7s21.9-3.7,21.9,9.6
				C781.8,152.9,772,170.2,759.9,178.3z"/>
			<path class="st42" d="M748.1,189.7c0.9-2.5,1.8-5,2.7-7.6c-7.6,1.2-12.9-3.7-12.9-13.5c0-13.3,9.8-30.7,21.9-38.7
				c10.5-7,19.3-4.6,21.4,4.8l6-4c-2.2-13-13.6-16.5-27.4-7.4c-15.3,10.2-27.8,32.2-27.8,49.1C732.1,184.8,738.6,191.1,748.1,189.7z
				"/>
		</g>
	</g>
	<g>
		<path class="st16" d="M502.2,269.9c0,0-64.2,1.3-94.6-8.6"/>
		<path class="st16" d="M502.2,264.7c0,0-20.8,0.4-44.4-1"/>
		<path class="st16" d="M502.2,277.4c0,0-64.2,1.3-94.6-8.6"/>
		<path class="st16" d="M502.2,284.8c0,0-64.2,1.3-94.6-8.6"/>
		<path class="st16" d="M502.2,292.3c0,0-64.2,1.3-94.6-8.6"/>
		<path class="st16" d="M502.2,299.7c0,0-64.2,1.3-94.6-8.6"/>
	</g>
	<polyline class="st43" points="818.6,256.2 832.3,227.3 848,232.8 858.8,214.6 864.8,218.4 876.3,184.6 	"/>
	<polyline class="st44" points="822.8,256.2 846.7,225.8 858.8,195.3 876.3,200.3 	"/>
	<path class="st16" d="M504.4,236.7c0,6.6-5.3,12-12,12l-50.3-3.7c-6.6,0-12-5.4-12-12v-17c0-6.6,5.3-12,12-12l50.3,3.7
		c6.6,0,12,5.4,12,12V236.7z"/>
	<path class="st22" d="M385.9,239.2c0,3.6-2.9,6.5-6.5,6.6l-27.5-2c-3.6,0-6.5-2.9-6.6-6.5V228c0-3.6,2.9-6.5,6.5-6.6l27.5,2
		c3.6,0,6.5,2.9,6.6,6.5V239.2z"/>
	<path class="st3" d="M385.9,269.3c0,3.6-2.9,6.5-6.5,6.6l-27.5-2c-3.6,0-6.5-2.9-6.6-6.5v-9.3c0-3.6,2.9-6.5,6.5-6.6l27.5,2
		c3.6,0,6.5,2.9,6.6,6.5V269.3z"/>
</g>
</svg>
